{
  "source": "C:\\Users\\Peter\\Desktop\\stuff\\MIUN\\quantitative_research\\video_compression\\videos\\UVG\\Beauty_1920x1080_120fps_420_8bit_YUV.y4m",
  "output": "C:\\Users\\Peter\\Desktop\\stuff\\MIUN\\quantitative_research\\video_compression\\compressed_videos\\UVG\\hevc\\2.5\\Beauty_1920x1080_120fps_420_8bit_YUV_hevc.mp4",
  "codec": "hevc",
  "ok": "[yuv4mpegpipe @ 0000029709f26740] Stream #0: not enough frames to estimate rate; consider increasing probesize\nInput #0, yuv4mpegpipe, from 'C:\\Users\\Peter\\Desktop\\stuff\\MIUN\\quantitative_research\\video_compression\\videos\\UVG\\Beauty_1920x1080_120fps_420_8bit_YUV.y4m':\n  Duration: 00:00:05.00, start: 0.000000, bitrate: 2985989 kb/s\n  Stream #0:0: Video: rawvideo (I420 / 0x30323449), yuv420p(progressive), 1920x1080, 120 fps, 120 tbr, 120 tbn\n[out#0/mp4 @ 0000029709f29a80] Codec AVOption b:a (set bitrate (in bits/s)) has not been used for any stream. The most likely reason is either wrong type (e.g. a video option with no video streams) or that it is a private option of some decoder which was not actually used for any stream.\nStream mapping:\n  Stream #0:0 -> #0:0 (rawvideo (native) -> hevc (libx265))\nPress [q] to stop, [?] for help\n[libx265 @ 0000029709f2cac0] Unknown option: \"aq-mode.\nx265 [info]: HEVC encoder version 4.1+190-8f11c33ac\nx265 [info]: build info [Windows][GCC 15.1.0][64 bit] 10bit\nx265 [info]: using cpu capabilities: MMX2 SSE2Fast LZCNT SSSE3 SSE4.2 AVX FMA3 BMI2 AVX2\nx265 [info]: Main 10 profile, Level-5 (Main tier)\nx265 [info]: Thread pool created using 12 threads\nx265 [info]: Slices                              : 1\nx265 [info]: frame threads / pool features       : 3 / wpp(17 rows)\nx265 [info]: Coding QT: max CU size, min CU size : 64 / 8\nx265 [info]: Residual QT: max TU size, max depth : 32 / 1 inter / 1 intra\nx265 [info]: ME / range / subpel / merge         : star / 57 / 3 / 3\nx265 [info]: Keyframe min / max / scenecut / bias  : 25 / 250 / 40 / 5.00 \nx265 [info]: Lookahead / bframes / badapt        : 25 / 4 / 2\nx265 [info]: b-pyramid / weightp / weightb       : 1 / 1 / 0\nx265 [info]: References / ref-limit  cu / depth  : 4 / on / on\nx265 [info]: AQ: mode / str / qg-size / cu-tree  : 2 / 1.0 / 32 / 1\nx265 [info]: Rate Control / qCompress            : ABR-2500 kbps / 0.60\nx265 [info]: VBV/HRD buffer / max-rate / init    : 2500 / 2500 / 0.750\nx265 [info]: tools: rect limit-modes rd=4 psy-rd=2.00 rdoq=2 psy-rdoq=1.00\nx265 [info]: tools: rskip mode=1 signhide tmvp strong-intra-smoothing lslices=4\nx265 [info]: tools: deblock sao dhdr10-info\nOutput #0, mp4, to 'C:\\Users\\Peter\\Desktop\\stuff\\MIUN\\quantitative_research\\video_compression\\compressed_videos\\UVG\\hevc\\2.5\\Beauty_1920x1080_120fps_420_8bit_YUV_hevc.mp4':\n  Metadata:\n    encoder         : Lavf62.3.100\n  Stream #0:0: Video: hevc (hev1 / 0x31766568), yuv420p10le(tv, progressive), 1920x1080, q=2-31, 2500 kb/s, 120 fps, 15360 tbn\n    Metadata:\n      encoder         : Lavc62.11.100 libx265\n    Side data:\n      cpb: bitrate max/min/avg: 2500000/0/2500000 buffer size: 2500000 vbv_delay: N/A\nframe=    0 fps=0.0 q=0.0 size=       0KiB time=N/A bitrate=N/A speed=N/A elapsed=0:00:00.51    \nframe=    9 fps=8.7 q=45.6 size=       0KiB time=00:00:00.05 bitrate=   6.0kbits/s speed=0.0566x elapsed=0:00:01.03    \nframe=   16 fps= 10 q=43.5 size=       0KiB time=00:00:00.11 bitrate=   3.0kbits/s speed=0.0753x elapsed=0:00:01.54    \nframe=   22 fps= 11 q=38.4 size=       0KiB time=00:00:00.16 bitrate=   2.1kbits/s speed=0.0807x elapsed=0:00:02.06    \nframe=   29 fps= 11 q=42.1 size=       0KiB time=00:00:00.22 bitrate=   1.6kbits/s speed=0.0872x elapsed=0:00:02.58    \nframe=   36 fps= 12 q=41.6 size=       0KiB time=00:00:00.28 bitrate=   1.2kbits/s speed=0.0915x elapsed=0:00:03.09    \nframe=   43 fps= 12 q=40.0 size=       0KiB time=00:00:00.34 bitrate=   1.0kbits/s speed=0.0945x elapsed=0:00:03.61    \nframe=   49 fps= 12 q=41.3 size=       0KiB time=00:00:00.39 bitrate=   0.9kbits/s speed=0.0947x elapsed=0:00:04.13    \nframe=   57 fps= 12 q=37.4 size=       0KiB time=00:00:00.45 bitrate=   0.8kbits/s speed=0.0983x elapsed=0:00:04.66    \nframe=   63 fps= 12 q=39.9 size=       0KiB time=00:00:00.50 bitrate=   0.7kbits/s speed=0.0982x elapsed=0:00:05.17    \nframe=   69 fps= 12 q=40.2 size=       0KiB time=00:00:00.55 bitrate=   0.6kbits/s speed=0.0982x elapsed=0:00:05.68    \nframe=   76 fps= 12 q=40.0 size=       0KiB time=00:00:00.61 bitrate=   0.6kbits/s speed=0.0994x elapsed=0:00:06.20    \nframe=   82 fps= 12 q=37.5 size=       0KiB time=00:00:00.66 bitrate=   0.5kbits/s speed=0.0992x elapsed=0:00:06.72    \nframe=   87 fps= 12 q=37.5 size=       0KiB time=00:00:00.70 bitrate=   0.5kbits/s speed=0.0978x elapsed=0:00:07.23    \nframe=   93 fps= 12 q=38.9 size=       0KiB time=00:00:00.75 bitrate=   0.5kbits/s speed=0.0978x elapsed=0:00:07.75    \nframe=   99 fps= 12 q=40.4 size=       0KiB time=00:00:00.80 bitrate=   0.4kbits/s speed=0.0978x elapsed=0:00:08.26    \nframe=  104 fps= 12 q=41.0 size=       0KiB time=00:00:00.85 bitrate=   0.4kbits/s speed=0.0967x elapsed=0:00:08.78    \nframe=  110 fps= 12 q=41.0 size=     256KiB time=00:00:00.90 bitrate=2330.6kbits/s speed=0.0967x elapsed=0:00:09.30    \nframe=  116 fps= 12 q=41.6 size=     256KiB time=00:00:00.95 bitrate=2207.9kbits/s speed=0.0968x elapsed=0:00:09.81    \nframe=  122 fps= 12 q=37.7 size=     256KiB time=00:00:01.00 bitrate=2097.5kbits/s speed=0.0967x elapsed=0:00:10.33    \nframe=  127 fps= 12 q=37.6 size=     256KiB time=00:00:01.04 bitrate=2013.6kbits/s speed=0.0961x elapsed=0:00:10.84    \nframe=  134 fps= 12 q=40.9 size=     256KiB time=00:00:01.10 bitrate=1906.8kbits/s speed=0.0969x elapsed=0:00:11.35    \nframe=  139 fps= 12 q=40.9 size=     256KiB time=00:00:01.14 bitrate=1837.2kbits/s speed=0.0961x elapsed=0:00:11.88    \nframe=  145 fps= 12 q=41.0 size=     256KiB time=00:00:01.19 bitrate=1760.1kbits/s speed=0.0962x elapsed=0:00:12.39    \nframe=  151 fps= 12 q=40.6 size=     256KiB time=00:00:01.24 bitrate=1689.3kbits/s speed=0.0962x elapsed=0:00:12.90    \nframe=  157 fps= 12 q=36.6 size=     256KiB time=00:00:01.29 bitrate=1623.9kbits/s speed=0.0962x elapsed=0:00:13.42    \nframe=  163 fps= 12 q=38.5 size=     256KiB time=00:00:01.34 bitrate=1563.4kbits/s speed=0.0962x elapsed=0:00:13.94    \nframe=  169 fps= 12 q=39.8 size=     256KiB time=00:00:01.39 bitrate=1507.2kbits/s speed=0.0962x elapsed=0:00:14.46    \nframe=  175 fps= 12 q=39.8 size=     256KiB time=00:00:01.44 bitrate=1454.9kbits/s speed=0.0963x elapsed=0:00:14.96    \nframe=  180 fps= 12 q=40.2 size=     256KiB time=00:00:01.48 bitrate=1414.0kbits/s speed=0.0958x elapsed=0:00:15.48    \nframe=  186 fps= 12 q=40.2 size=     256KiB time=00:00:01.53 bitrate=1367.9kbits/s speed=0.0958x elapsed=0:00:15.99    \nframe=  192 fps= 12 q=36.7 size=     256KiB time=00:00:01.58 bitrate=1324.7kbits/s speed=0.0958x elapsed=0:00:16.52    \nframe=  197 fps= 12 q=36.7 size=     256KiB time=00:00:01.62 bitrate=1290.8kbits/s speed=0.0954x elapsed=0:00:17.02    \nframe=  203 fps= 12 q=38.6 size=     256KiB time=00:00:01.67 bitrate=1252.2kbits/s speed=0.0955x elapsed=0:00:17.54    \nframe=  208 fps= 12 q=38.6 size=     256KiB time=00:00:01.71 bitrate=1221.8kbits/s speed=0.095x elapsed=0:00:18.06    \nframe=  213 fps= 11 q=38.7 size=     512KiB time=00:00:01.75 bitrate=2385.6kbits/s speed=0.0946x elapsed=0:00:18.58    \nframe=  219 fps= 11 q=40.0 size=     512KiB time=00:00:01.80 bitrate=2319.6kbits/s speed=0.0947x elapsed=0:00:19.10    \nframe=  224 fps= 11 q=40.7 size=     512KiB time=00:00:01.85 bitrate=2267.4kbits/s speed=0.0943x elapsed=0:00:19.60    \nframe=  230 fps= 11 q=40.9 size=     512KiB time=00:00:01.90 bitrate=2207.7kbits/s speed=0.0944x elapsed=0:00:20.12    \nframe=  236 fps= 11 q=41.2 size=     512KiB time=00:00:01.95 bitrate=2151.1kbits/s speed=0.0945x elapsed=0:00:20.64    \nframe=  244 fps= 12 q=40.9 size=     512KiB time=00:00:02.01 bitrate=2080.0kbits/s speed=0.0953x elapsed=0:00:21.16    \nframe=  254 fps= 12 q=41.4 size=     512KiB time=00:00:02.10 bitrate=1997.5kbits/s speed=0.0969x elapsed=0:00:21.68    \nframe=  262 fps= 12 q=36.9 size=     512KiB time=00:00:02.16 bitrate=1936.0kbits/s speed=0.0977x elapsed=0:00:22.18    \nframe=  269 fps= 12 q=41.4 size=     512KiB time=00:00:02.22 bitrate=1885.2kbits/s speed=0.098x elapsed=0:00:22.71    \nframe=  275 fps= 12 q=41.3 size=     512KiB time=00:00:02.27 bitrate=1843.8kbits/s speed=0.098x elapsed=0:00:23.21    \nframe=  282 fps= 12 q=37.0 size=     512KiB time=00:00:02.33 bitrate=1797.7kbits/s speed=0.0983x elapsed=0:00:23.73    \nframe=  290 fps= 12 q=41.3 size=     512KiB time=00:00:02.40 bitrate=1747.8kbits/s speed=0.099x elapsed=0:00:24.24    \nframe=  297 fps= 12 q=37.3 size=     512KiB time=00:00:02.45 bitrate=1706.3kbits/s speed=0.0993x elapsed=0:00:24.76    \nframe=  305 fps= 12 q=41.2 size=     768KiB time=00:00:02.52 bitrate=2491.8kbits/s speed=0.0998x elapsed=0:00:25.29    \nframe=  313 fps= 12 q=39.7 size=     768KiB time=00:00:02.59 bitrate=2427.7kbits/s speed= 0.1x elapsed=0:00:25.80    \nframe=  319 fps= 12 q=40.8 size=     768KiB time=00:00:02.64 bitrate=2381.8kbits/s speed= 0.1x elapsed=0:00:26.30    \nframe=  327 fps= 12 q=36.5 size=     768KiB time=00:00:02.70 bitrate=2323.1kbits/s speed=0.101x elapsed=0:00:26.84    \nframe=  334 fps= 12 q=40.8 size=     768KiB time=00:00:02.76 bitrate=2274.1kbits/s speed=0.101x elapsed=0:00:27.35    \nframe=  342 fps= 12 q=36.6 size=     768KiB time=00:00:02.83 bitrate=2220.6kbits/s speed=0.102x elapsed=0:00:27.87    \nframe=  349 fps= 12 q=41.0 size=     768KiB time=00:00:02.89 bitrate=2175.8kbits/s speed=0.102x elapsed=0:00:28.38    \nframe=  357 fps= 12 q=36.5 size=     768KiB time=00:00:02.95 bitrate=2126.8kbits/s speed=0.102x elapsed=0:00:28.91    \nframe=  365 fps= 12 q=40.5 size=     768KiB time=00:00:03.02 bitrate=2079.9kbits/s speed=0.103x elapsed=0:00:29.42    \nframe=  372 fps= 12 q=36.5 size=     768KiB time=00:00:03.08 bitrate=2040.6kbits/s speed=0.103x elapsed=0:00:29.93    \nframe=  380 fps= 12 q=40.2 size=     768KiB time=00:00:03.15 bitrate=1997.4kbits/s speed=0.103x elapsed=0:00:30.46    \nframe=  387 fps= 12 q=36.6 size=     768KiB time=00:00:03.20 bitrate=1961.1kbits/s speed=0.104x elapsed=0:00:30.96    \nframe=  394 fps= 13 q=40.3 size=     768KiB time=00:00:03.26 bitrate=1926.1kbits/s speed=0.104x elapsed=0:00:31.49    \nframe=  401 fps= 13 q=41.0 size=     768KiB time=00:00:03.32 bitrate=1892.3kbits/s speed=0.104x elapsed=0:00:31.99    \nframe=  408 fps= 13 q=39.2 size=    1024KiB time=00:00:03.38 bitrate=2479.5kbits/s speed=0.104x elapsed=0:00:32.51    \nframe=  415 fps= 13 q=40.9 size=    1024KiB time=00:00:03.44 bitrate=2437.5kbits/s speed=0.104x elapsed=0:00:33.03    \nframe=  422 fps= 13 q=36.7 size=    1024KiB time=00:00:03.50 bitrate=2396.8kbits/s speed=0.104x elapsed=0:00:33.54    \nframe=  430 fps= 13 q=40.5 size=    1024KiB time=00:00:03.56 bitrate=2352.0kbits/s speed=0.105x elapsed=0:00:34.06    \nframe=  437 fps= 13 q=36.8 size=    1024KiB time=00:00:03.62 bitrate=2314.2kbits/s speed=0.105x elapsed=0:00:34.57    \nframe=  444 fps= 13 q=40.4 size=    1024KiB time=00:00:03.68 bitrate=2277.5kbits/s speed=0.105x elapsed=0:00:35.10    \nframe=  451 fps= 13 q=40.8 size=    1024KiB time=00:00:03.74 bitrate=2242.0kbits/s speed=0.105x elapsed=0:00:35.62    \nframe=  459 fps= 13 q=40.5 size=    1024KiB time=00:00:03.80 bitrate=2202.8kbits/s speed=0.105x elapsed=0:00:36.14    \nframe=  467 fps= 13 q=36.9 size=    1024KiB time=00:00:03.87 bitrate=2164.9kbits/s speed=0.106x elapsed=0:00:36.65    \nframe=  475 fps= 13 q=40.5 size=    1024KiB time=00:00:03.94 bitrate=2128.3kbits/s speed=0.106x elapsed=0:00:37.17    \nframe=  481 fps= 13 q=40.5 size=    1024KiB time=00:00:03.99 bitrate=2101.6kbits/s speed=0.106x elapsed=0:00:37.69    \nframe=  489 fps= 13 q=40.5 size=    1024KiB time=00:00:04.05 bitrate=2067.1kbits/s speed=0.106x elapsed=0:00:38.20    \nframe=  496 fps= 13 q=40.9 size=    1024KiB time=00:00:04.11 bitrate=2037.8kbits/s speed=0.106x elapsed=0:00:38.71    \nframe=  505 fps= 13 q=40.4 size=    1280KiB time=00:00:04.19 bitrate=2501.7kbits/s speed=0.107x elapsed=0:00:39.23    \nframe=  514 fps= 13 q=40.7 size=    1280KiB time=00:00:04.26 bitrate=2457.7kbits/s speed=0.107x elapsed=0:00:39.75    \nframe=  521 fps= 13 q=40.7 size=    1280KiB time=00:00:04.32 bitrate=2424.5kbits/s speed=0.107x elapsed=0:00:40.26    \nframe=  530 fps= 13 q=40.8 size=    1280KiB time=00:00:04.40 bitrate=2383.2kbits/s speed=0.108x elapsed=0:00:40.77    \nframe=  538 fps= 13 q=39.5 size=    1280KiB time=00:00:04.46 bitrate=2347.6kbits/s speed=0.108x elapsed=0:00:41.29    \nframe=  547 fps= 13 q=36.5 size=    1280KiB time=00:00:04.54 bitrate=2308.9kbits/s speed=0.109x elapsed=0:00:41.81    \nframe=  555 fps= 13 q=40.5 size=    1280KiB time=00:00:04.60 bitrate=2275.5kbits/s speed=0.109x elapsed=0:00:42.33    \nframe=  563 fps= 13 q=39.1 size=    1280KiB time=00:00:04.67 bitrate=2243.0kbits/s speed=0.109x elapsed=0:00:42.84    \nframe=  570 fps= 13 q=40.5 size=    1280KiB time=00:00:04.73 bitrate=2215.4kbits/s speed=0.109x elapsed=0:00:43.35    \nframe=  578 fps= 13 q=38.8 size=    1280KiB time=00:00:04.80 bitrate=2184.6kbits/s speed=0.109x elapsed=0:00:43.87    \nframe=  586 fps= 13 q=41.2 size=    1280KiB time=00:00:04.86 bitrate=2154.7kbits/s speed=0.11x elapsed=0:00:44.39    \nframe=  595 fps= 13 q=40.6 size=    1280KiB time=00:00:04.94 bitrate=2122.0kbits/s speed=0.11x elapsed=0:00:44.90    \n[mp4 @ 0000029709f29b80] Starting second pass: moving the moov atom to the beginning of the file\n[out#0/mp4 @ 0000029709f29a80] video:1518KiB audio:0KiB subtitle:0KiB other streams:0KiB global headers:2KiB muxing overhead: 0.659062%\nframe=  600 fps= 13 q=41.0 Lsize=    1528KiB time=00:00:04.98 bitrate=2511.4kbits/s speed=0.11x elapsed=0:00:45.14    \nx265 [info]: frame I:      3, Avg QP:39.97  kb/s: 7592.64 \nx265 [info]: frame P:    118, Avg QP:37.18  kb/s: 5558.75 \nx265 [info]: frame B:    479, Avg QP:40.59  kb/s: 1693.10 \nx265 [info]: Weighted P-Frames: Y:0.0% UV:0.0%\n\nencoded 600 frames in 45.09s (13.31 fps), 2482.84 kb/s, Avg QP:39.92\n",
  "seconds": 45.22365641593933,
  "probe_out": {}
}